<svg xmlns="http://www.w3.org/2000/svg" viewBox="0 0 33 32"><symbol xmlns="http://www.w3.org/2000/svg" id="a" fill="none" viewBox="0 0 33 32"><rect width="32" height="32" x=".332" fill="#8247E5" rx="16"/><path fill="#fff" d="M20.577 12.865a1.07 1.07 0 0 0-1.046 0l-2.398 1.39-1.63.905-2.399 1.39a1.07 1.07 0 0 1-1.045 0l-1.906-1.088a1.04 1.04 0 0 1-.523-.876v-2.144c0-.363.184-.695.522-.876l1.876-1.057a1.07 1.07 0 0 1 1.046 0l1.876 1.057c.307.181.522.513.522.876v1.39l1.63-.937v-1.39a.98.98 0 0 0-.523-.876l-3.475-1.993a1.07 1.07 0 0 0-1.045 0L8.523 10.63a.98.98 0 0 0-.523.875v4.018c0 .362.184.695.523.876l3.536 1.993c.308.181.707.181 1.046 0l2.398-1.359 1.63-.936 2.398-1.36a1.07 1.07 0 0 1 1.046 0l1.876 1.058c.307.18.522.513.522.876v2.144a.98.98 0 0 1-.522.876l-1.876 1.088a1.07 1.07 0 0 1-1.046 0l-1.875-1.058a1.04 1.04 0 0 1-.523-.876v-1.39l-1.63.937v1.39c0 .362.185.695.523.876l3.536 1.993c.308.181.707.181 1.046 0l3.536-1.993c.307-.181.523-.514.523-.876v-4.018a.98.98 0 0 0-.523-.876z"/><rect width="31" height="31" x=".832" y=".5" stroke="#000" stroke-opacity=".05" rx="15.5"/></symbol><use href="#a"/></svg>