<svg xmlns="http://www.w3.org/2000/svg" viewBox="0 0 32 32">
    <symbol xmlns="http://www.w3.org/2000/svg" id="a" fill="none" viewBox="0 0 32 32">
        <path stroke="currentColor" stroke-linecap="round" stroke-linejoin="round"
            stroke-width="1.25"
            d="M28 29.334H4M18.401 29.333v-3.2M23.737 29.333v-3.2M16.533 24.8l3.695 2.133M21.862 24.8l3.695 2.133M11.4 16l-.466 13.325H13.8L13.335 16zM12.267 2.4c-.736 0-1.333 4.358-1.333 9.733h2.667c0-5.375-.597-9.733-1.334-9.733M2.267 19.621c.369.638 4.441-1.024 9.096-3.712L10.03 13.6c-4.655 2.689-8.13 5.385-7.763 6.022" />
        <path stroke="currentColor" stroke-linecap="round" stroke-linejoin="round"
            stroke-width="1.25"
            d="M22.16 19.621c-.368.638-4.44-1.024-9.096-3.712l1.334-2.31c4.655 2.689 8.13 5.385 7.762 6.022" />
        <circle cx="12.271" cy="13.867" r="2.133" fill="#fff" stroke="currentColor"
            stroke-linecap="round" stroke-linejoin="round" stroke-width="1.25" />
    </symbol>
    <use href="#a" />
</svg>