<svg xmlns="http://www.w3.org/2000/svg" viewBox="0 0 33 32">
    <!-- First Icon (Document Icon) -->
    <g stroke="#000000" stroke-linecap="round" stroke-linejoin="round" stroke-width="1.2"
        fill="none">
        <path
            d="M6.004 13.333V6.667A2.667 2.667 0 0 1 8.67 4h17.333a2.667 2.667 0 0 1 2.667 2.667v18.666A2.667 2.667 0 0 1 26.004 28h-8" />
        <path d="M23.336 10.667h-12" />
        <path d="M23.336 16h-4" />
        <path d="M23.335 21.333h-2.667" />
    </g>

    <!-- Second Icon (Purple Logo Circle) in bottom-left corner -->
    <g transform="translate(2, 14)">
        <rect width="16" height="16" fill="#8247E5" rx="8" />
        <path
            transform="scale(0.5) translate(0, 0.5)"
            fill="#fff"
            d="M20.577 12.865a1.07 1.07 0 0 0-1.046 0l-2.398 1.39-1.63.905-2.399 1.39a1.07 1.07 0 0 1-1.045 0l-1.906-1.088a1.04 1.04 0 0 1-.523-.876v-2.144c0-.363.184-.695.522-.876l1.876-1.057a1.07 1.07 0 0 1 1.046 0l1.876 1.057c.307.181.522.513.522.876v1.39l1.63-.937v-1.39a.98.98 0 0 0-.523-.876l-3.475-1.993a1.07 1.07 0 0 0-1.045 0L8.523 10.63a.98.98 0 0 0-.523.875v4.018c0 .362.184.695.523.876l3.536 1.993c.308.181.707.181 1.046 0l2.398-1.359 1.63-.936 2.398-1.36a1.07 1.07 0 0 1 1.046 0l1.876 1.058c.307.18.522.513.522.876v2.144a.98.98 0 0 1-.522.876l-1.876 1.088a1.07 1.07 0 0 1-1.046 0l-1.875-1.058a1.04 1.04 0 0 1-.523-.876v-1.39l-1.63.937v1.39c0 .362.185.695.523.876l3.536 1.993c.308.181.707.181 1.046 0l3.536-1.993c.307-.181.523-.514.523-.876v-4.018a.98.98 0 0 0-.523-.876z"
        />
    </g>
</svg>